<svg xmlns="http://www.w3.org/2000/svg" xmlns:xlink="http://www.w3.org/1999/xlink" width="500" zoomAndPan="magnify" viewBox="0 0 375 374.999991" height="500" preserveAspectRatio="xMidYMid meet" version="1.0"><defs><g/><clipPath id="349667a189"><path d="M 106.179688 77.109375 L 268.929688 77.109375 L 268.929688 239.859375 L 106.179688 239.859375 Z M 106.179688 77.109375 " clip-rule="nonzero"/></clipPath><clipPath id="e757649db6"><path d="M 129.960938 153.5 L 244.710938 153.5 L 244.710938 255.5 L 129.960938 255.5 Z M 129.960938 153.5 " clip-rule="nonzero"/></clipPath><clipPath id="a5b39fd25f"><path d="M 141.371094 88 L 233.621094 88 L 233.621094 120 L 141.371094 120 Z M 141.371094 88 " clip-rule="nonzero"/></clipPath></defs><rect x="-37.5" width="450" fill="#ffffff" y="-37.499999" height="449.999989" fill-opacity="1"/><rect x="-37.5" width="450" fill="#ffffff" y="-37.499999" height="449.999989" fill-opacity="1"/><rect x="-37.5" width="450" fill="#ff1616" y="-37.499999" height="449.999989" fill-opacity="1"/><g clip-path="url(#349667a189)"><path fill="#ffffff" d="M 187.554688 77.109375 C 142.613281 77.109375 106.179688 113.542969 106.179688 158.484375 C 106.179688 203.429688 142.613281 239.859375 187.554688 239.859375 C 232.496094 239.859375 268.929688 203.429688 268.929688 158.484375 C 268.929688 113.542969 232.496094 77.109375 187.554688 77.109375 " fill-opacity="1" fill-rule="nonzero"/></g><g clip-path="url(#e757649db6)"><path fill="#ff1616" d="M 231.445312 159.9375 C 230.140625 156.175781 226.570312 153.5 222.394531 153.5 L 152.277344 153.5 C 148.101562 153.5 144.535156 156.175781 143.226562 159.9375 L 129.96875 198.125 L 129.96875 249.125 C 129.96875 252.628906 132.835938 255.5 136.34375 255.5 L 142.71875 255.5 C 146.253906 255.5 149.089844 252.628906 149.089844 249.125 L 149.089844 242.75 L 225.582031 242.75 L 225.582031 249.125 C 225.582031 252.628906 228.449219 255.5 231.957031 255.5 L 238.332031 255.5 C 241.867188 255.5 244.707031 252.628906 244.707031 249.125 L 244.707031 198.125 Z M 152.277344 223.625 C 146.988281 223.625 142.71875 219.351562 142.71875 214.0625 C 142.71875 208.769531 146.988281 204.5 152.277344 204.5 C 157.570312 204.5 161.839844 208.769531 161.839844 214.0625 C 161.839844 219.351562 157.570312 223.625 152.277344 223.625 Z M 222.394531 223.625 C 217.105469 223.625 212.835938 219.351562 212.835938 214.0625 C 212.835938 208.769531 217.105469 204.5 222.394531 204.5 C 227.6875 204.5 231.957031 208.769531 231.957031 214.0625 C 231.957031 219.351562 227.6875 223.625 222.394531 223.625 Z M 142.71875 191.75 L 152.277344 163.0625 L 222.394531 163.0625 L 231.957031 191.75 Z M 142.71875 191.75 " fill-opacity="1" fill-rule="nonzero"/></g><path fill="#ff1616" d="M 187.496094 134.882812 C 193.207031 134.882812 198.039062 136.203125 198.039062 141.9375 C 198.039062 147.667969 193.207031 148.992188 187.496094 148.992188 C 181.785156 148.992188 176.953125 148.109375 176.953125 141.9375 C 176.953125 135.761719 181.785156 134.882812 187.496094 134.882812 Z M 187.496094 134.882812 " fill-opacity="1" fill-rule="nonzero"/><path fill="#ff1616" d="M 212.972656 120.769531 L 212.09375 119.890625 L 211.65625 119.449219 C 198.039062 107.101562 176.953125 107.542969 163.773438 120.769531 L 162.015625 122.535156 L 159.820312 124.738281 C 157.183594 127.386719 157.183594 131.792969 159.820312 134.441406 C 162.457031 137.085938 166.847656 137.085938 169.484375 134.441406 L 172.996094 130.914062 C 181.34375 122.535156 194.960938 122.535156 203.308594 130.914062 L 205.945312 133.558594 C 208.582031 136.203125 212.535156 136.203125 215.167969 133.558594 C 216.488281 132.234375 216.925781 130.472656 216.925781 128.707031 C 216.925781 126.945312 216.046875 125.179688 215.167969 123.859375 Z M 212.972656 120.769531 " fill-opacity="1" fill-rule="nonzero"/><g clip-path="url(#a5b39fd25f)"><path fill="#ff1616" d="M 231.421875 107.542969 L 229.226562 105.339844 L 226.589844 102.691406 C 203.746094 83.292969 169.484375 83.734375 147.957031 104.898438 C 147.957031 104.898438 147.519531 104.898438 147.519531 105.339844 L 143.566406 108.867188 C 141.371094 111.070312 141.371094 115.039062 143.566406 117.683594 C 145.761719 119.890625 149.714844 119.890625 152.351562 117.683594 L 156.304688 113.714844 C 173.875 96.519531 201.992188 96.519531 219.5625 113.273438 L 222.636719 116.363281 C 224.832031 118.566406 228.789062 118.566406 231.421875 116.363281 C 233.621094 114.15625 233.621094 110.1875 231.421875 107.542969 Z M 231.421875 107.542969 " fill-opacity="1" fill-rule="nonzero"/></g><g fill="#ffffff" fill-opacity="1"><g transform="translate(124.376559, 268.889294)"><g><path d="M 22 -25 L 18.351562 -25 C 17.667969 -25 17.25 -24.773438 17.25 -23.898438 L 17.25 -10.714844 L 9.195312 -23.707031 C 8.699219 -24.46875 8.433594 -25 7.484375 -25 L 3.914062 -25 C 3.039062 -25 2.8125 -24.582031 2.8125 -23.898438 L 2.8125 -1.101562 C 2.8125 -0.226562 3.230469 0 3.914062 0 L 7.675781 0 C 8.359375 0 8.777344 -0.226562 8.777344 -1.101562 L 8.777344 -14.324219 L 16.832031 -1.292969 C 17.324219 -0.53125 17.589844 0 18.542969 0 L 22 0 C 22.871094 0 23.101562 -0.417969 23.101562 -1.101562 L 23.101562 -23.898438 C 23.101562 -24.773438 22.683594 -25 22 -25 Z M 22 -25 "/></g></g></g><g fill="#ffffff" fill-opacity="1"><g transform="translate(150.287262, 268.889294)"><g><path d="M 9.953125 -31.878906 L 5.773438 -31.878906 C 5.054688 -31.878906 4.671875 -31.648438 4.671875 -30.777344 L 4.671875 -28.304688 C 4.671875 -27.433594 5.054688 -27.203125 5.773438 -27.203125 L 9.953125 -27.203125 C 10.601562 -27.203125 11.054688 -27.433594 11.054688 -28.304688 L 11.054688 -30.777344 C 11.054688 -31.648438 10.601562 -31.878906 9.953125 -31.878906 Z M 19.339844 -31.878906 L 15.160156 -31.878906 C 14.476562 -31.878906 14.058594 -31.648438 14.058594 -30.777344 L 14.058594 -28.304688 C 14.058594 -27.433594 14.476562 -27.203125 15.160156 -27.203125 L 19.339844 -27.203125 C 20.023438 -27.203125 20.441406 -27.433594 20.441406 -28.304688 L 20.441406 -30.777344 C 20.441406 -31.648438 20.023438 -31.878906 19.339844 -31.878906 Z M 21.503906 -25 L 17.742188 -25 C 17.058594 -25 16.640625 -24.773438 16.640625 -23.898438 L 16.640625 -8.472656 C 16.640625 -6.078125 15.046875 -4.710938 12.539062 -4.710938 C 10.03125 -4.710938 8.472656 -6.078125 8.472656 -8.472656 L 8.472656 -23.898438 C 8.472656 -24.773438 8.054688 -25 7.371094 -25 L 3.609375 -25 C 2.925781 -25 2.507812 -24.773438 2.507812 -23.898438 L 2.507812 -7.636719 C 2.507812 -1.671875 8.015625 0.570312 12.539062 0.570312 C 17.058594 0.570312 22.605469 -1.671875 22.605469 -7.636719 L 22.605469 -23.898438 C 22.605469 -24.773438 22.1875 -25 21.503906 -25 Z M 21.503906 -25 "/></g></g></g><g fill="#ffffff" fill-opacity="1"><g transform="translate(175.40013, 268.889294)"><g><path d="M 20.632812 -12.957031 C 20.972656 -13.109375 23.40625 -14.324219 23.40625 -18.160156 C 23.40625 -21.734375 20.746094 -25.039062 14.550781 -25.039062 L 3.914062 -25.039062 C 3.039062 -25.039062 2.8125 -24.621094 2.8125 -23.9375 L 2.8125 -1.101562 C 2.8125 -0.417969 3.039062 0 3.914062 0 L 15.085938 0 C 20.367188 0 24.125 -2.46875 24.125 -7.296875 C 24.125 -11.398438 20.933594 -12.84375 20.632812 -12.957031 Z M 15.160156 -5.394531 L 8.777344 -5.394531 L 8.777344 -19.679688 L 14.550781 -19.679688 C 16.527344 -19.679688 17.707031 -19.261719 17.707031 -17.554688 C 17.707031 -16.070312 16.753906 -15.273438 14.550781 -15.273438 L 14.058594 -15.273438 C 13.183594 -15.273438 12.957031 -14.855469 12.957031 -14.171875 L 12.957031 -11.285156 C 12.957031 -10.601562 13.183594 -10.183594 14.058594 -10.183594 L 14.933594 -10.183594 C 16.753906 -10.183594 18.085938 -9.652344 18.085938 -7.863281 C 18.085938 -6.15625 17.023438 -5.394531 15.160156 -5.394531 Z M 15.160156 -5.394531 "/></g></g></g><g fill="#ffffff" fill-opacity="1"><g transform="translate(201.500794, 268.889294)"><g><path d="M 20.933594 -5.320312 L 8.816406 -5.320312 L 8.816406 -10.335938 L 18.996094 -10.335938 C 19.871094 -10.335938 20.097656 -10.753906 20.097656 -11.4375 L 20.097656 -14.398438 C 20.097656 -15.085938 19.871094 -15.503906 18.996094 -15.503906 L 8.816406 -15.503906 L 8.816406 -19.644531 L 20.289062 -19.644531 C 21.164062 -19.644531 21.390625 -20.0625 21.390625 -20.746094 L 21.390625 -23.898438 C 21.390625 -24.582031 21.164062 -25 20.289062 -25 L 3.914062 -25 C 3.039062 -25 2.8125 -24.582031 2.8125 -23.898438 L 2.8125 -1.101562 C 2.8125 -0.417969 3.039062 0 3.914062 0 L 20.933594 0 C 21.808594 0 22.035156 -0.417969 22.035156 -1.101562 L 22.035156 -4.21875 C 22.035156 -4.902344 21.808594 -5.320312 20.933594 -5.320312 Z M 20.933594 -5.320312 "/></g></g></g><g fill="#ffffff" fill-opacity="1"><g transform="translate(225.321922, 268.889294)"><g><path d="M 23.289062 -1.214844 L 17.933594 -9.003906 C 20.289062 -9.800781 23.214844 -12.578125 23.214844 -16.566406 C 23.214844 -18.996094 22.417969 -21.164062 21.011719 -22.53125 C 19.414062 -24.125 17.589844 -24.960938 13.449219 -24.960938 L 3.875 -24.960938 C 3 -24.960938 2.8125 -24.542969 2.8125 -23.859375 L 2.8125 -1.101562 C 2.8125 -0.226562 3.191406 0 3.875 0 L 7.636719 0 C 8.320312 0 8.738281 -0.226562 8.738281 -1.101562 L 8.738281 -19.644531 L 13.792969 -19.644531 C 15.769531 -19.644531 17.289062 -18.390625 17.289062 -16.414062 C 17.289062 -14.628906 15.539062 -13.335938 13.679688 -13.335938 L 12.917969 -13.335938 C 12.042969 -13.335938 11.816406 -12.917969 11.816406 -12.234375 L 11.816406 -9.195312 C 11.816406 -8.132812 11.890625 -7.714844 12.234375 -7.257812 L 16.335938 -1.140625 C 16.871094 -0.34375 17.324219 0 18.238281 0 L 22.722656 0 C 23.441406 0 23.632812 -0.683594 23.289062 -1.214844 Z M 23.289062 -1.214844 "/></g></g></g></svg>